<svg id="visual" viewBox="0 0 960 50" width="960" height="50" xmlns="http://www.w3.org/2000/svg" xmlns:xlink="http://www.w3.org/1999/xlink" version="1.1"><path d="M0 38L11.5 35.3C23 32.7 46 27.3 68.8 26.3C91.7 25.3 114.3 28.7 137.2 31C160 33.3 183 34.7 205.8 35.3C228.7 36 251.3 36 274.2 34.3C297 32.7 320 29.3 342.8 29.2C365.7 29 388.3 32 411.2 33.3C434 34.7 457 34.3 480 33C503 31.7 526 29.3 548.8 28C571.7 26.7 594.3 26.3 617.2 28.7C640 31 663 36 685.8 37.8C708.7 39.7 731.3 38.3 754.2 38.5C777 38.7 800 40.3 822.8 38.3C845.7 36.3 868.3 30.7 891.2 30.5C914 30.3 937 35.7 948.5 38.3L960 41L960 0L948.5 0C937 0 914 0 891.2 0C868.3 0 845.7 0 822.8 0C800 0 777 0 754.2 0C731.3 0 708.7 0 685.8 0C663 0 640 0 617.2 0C594.3 0 571.7 0 548.8 0C526 0 503 0 480 0C457 0 434 0 411.2 0C388.3 0 365.7 0 342.8 0C320 0 297 0 274.2 0C251.3 0 228.7 0 205.8 0C183 0 160 0 137.2 0C114.3 0 91.7 0 68.8 0C46 0 23 0 11.5 0L0 0Z" fill="#276fff"></path><path d="M0 34L11.5 31.7C23 29.3 46 24.7 68.8 22.2C91.7 19.7 114.3 19.3 137.2 20.8C160 22.3 183 25.7 205.8 26.7C228.7 27.7 251.3 26.3 274.2 25.5C297 24.7 320 24.3 342.8 25.3C365.7 26.3 388.3 28.7 411.2 29.7C434 30.7 457 30.3 480 28C503 25.7 526 21.3 548.8 21.5C571.7 21.7 594.3 26.3 617.2 27.7C640 29 663 27 685.8 25.2C708.7 23.3 731.3 21.7 754.2 20.8C777 20 800 20 822.8 21.2C845.7 22.3 868.3 24.7 891.2 24.3C914 24 937 21 948.5 19.5L960 18L960 0L948.5 0C937 0 914 0 891.2 0C868.3 0 845.7 0 822.8 0C800 0 777 0 754.2 0C731.3 0 708.7 0 685.8 0C663 0 640 0 617.2 0C594.3 0 571.7 0 548.8 0C526 0 503 0 480 0C457 0 434 0 411.2 0C388.3 0 365.7 0 342.8 0C320 0 297 0 274.2 0C251.3 0 228.7 0 205.8 0C183 0 160 0 137.2 0C114.3 0 91.7 0 68.8 0C46 0 23 0 11.5 0L0 0Z" fill="#2252c7"></path><path d="M0 23L11.5 22.7C23 22.3 46 21.7 68.8 21.3C91.7 21 114.3 21 137.2 21.2C160 21.3 183 21.7 205.8 20.3C228.7 19 251.3 16 274.2 16.2C297 16.3 320 19.7 342.8 21.8C365.7 24 388.3 25 411.2 25C434 25 457 24 480 22.5C503 21 526 19 548.8 18.8C571.7 18.7 594.3 20.3 617.2 21.2C640 22 663 22 685.8 21.2C708.7 20.3 731.3 18.7 754.2 18.3C777 18 800 19 822.8 19.2C845.7 19.3 868.3 18.7 891.2 17.8C914 17 937 16 948.5 15.5L960 15L960 0L948.5 0C937 0 914 0 891.2 0C868.3 0 845.7 0 822.8 0C800 0 777 0 754.2 0C731.3 0 708.7 0 685.8 0C663 0 640 0 617.2 0C594.3 0 571.7 0 548.8 0C526 0 503 0 480 0C457 0 434 0 411.2 0C388.3 0 365.7 0 342.8 0C320 0 297 0 274.2 0C251.3 0 228.7 0 205.8 0C183 0 160 0 137.2 0C114.3 0 91.7 0 68.8 0C46 0 23 0 11.5 0L0 0Z" fill="#173793"></path><path d="M0 8L11.5 9.5C23 11 46 14 68.8 14.3C91.7 14.7 114.3 12.3 137.2 12.3C160 12.3 183 14.7 205.8 15.2C228.7 15.7 251.3 14.3 274.2 13C297 11.7 320 10.3 342.8 10.7C365.7 11 388.3 13 411.2 13.7C434 14.3 457 13.7 480 13.3C503 13 526 13 548.8 14C571.7 15 594.3 17 617.2 18.2C640 19.3 663 19.7 685.8 18.2C708.7 16.7 731.3 13.3 754.2 11.7C777 10 800 10 822.8 10.7C845.7 11.3 868.3 12.7 891.2 12.7C914 12.7 937 11.3 948.5 10.7L960 10L960 0L948.5 0C937 0 914 0 891.2 0C868.3 0 845.7 0 822.8 0C800 0 777 0 754.2 0C731.3 0 708.7 0 685.8 0C663 0 640 0 617.2 0C594.3 0 571.7 0 548.8 0C526 0 503 0 480 0C457 0 434 0 411.2 0C388.3 0 365.7 0 342.8 0C320 0 297 0 274.2 0C251.3 0 228.7 0 205.8 0C183 0 160 0 137.2 0C114.3 0 91.7 0 68.8 0C46 0 23 0 11.5 0L0 0Z" fill="#071e62"></path><path d="M0 12L11.5 12C23 12 46 12 68.8 11.8C91.7 11.7 114.3 11.3 137.2 10.5C160 9.7 183 8.3 205.8 8C228.7 7.7 251.3 8.3 274.2 8.2C297 8 320 7 342.8 6C365.7 5 388.3 4 411.2 3.5C434 3 457 3 480 3.7C503 4.3 526 5.7 548.8 7C571.7 8.3 594.3 9.7 617.2 9.2C640 8.7 663 6.3 685.8 6C708.7 5.7 731.3 7.3 754.2 7.2C777 7 800 5 822.8 5.2C845.7 5.3 868.3 7.7 891.2 7.8C914 8 937 6 948.5 5L960 4L960 0L948.5 0C937 0 914 0 891.2 0C868.3 0 845.7 0 822.8 0C800 0 777 0 754.2 0C731.3 0 708.7 0 685.8 0C663 0 640 0 617.2 0C594.3 0 571.7 0 548.8 0C526 0 503 0 480 0C457 0 434 0 411.2 0C388.3 0 365.7 0 342.8 0C320 0 297 0 274.2 0C251.3 0 228.7 0 205.8 0C183 0 160 0 137.2 0C114.3 0 91.7 0 68.8 0C46 0 23 0 11.5 0L0 0Z" fill="#020235"></path></svg>